<?xml version="1.0" standalone="no"?>
<!DOCTYPE svg PUBLIC "-//W3C//DTD SVG 20010904//EN"
 "http://www.w3.org/TR/2001/REC-SVG-20010904/DTD/svg10.dtd">
<svg version="1.0" xmlns="http://www.w3.org/2000/svg"
 width="130.000000pt" height="130.000000pt" viewBox="0 0 130.000000 130.000000"
 preserveAspectRatio="xMidYMid meet">
<metadata>
Created by potrace 1.14, written by Peter Selinger 2001-2017
</metadata>
<g transform="translate(0.000000,130.000000) scale(0.100000,-0.100000)"
fill="#000000" stroke="none">
<path d="M155 1278 c9 -30 43 -79 69 -98 31 -23 49 -28 71 -20 18 7 16 11 -25
49 -46 44 -29 46 28 4 31 -23 32 -23 32 -4 0 48 -70 90 -153 91 -25 0 -28 -3
-22 -22z"/>
<path d="M437 1274 c-79 -40 -129 -133 -99 -182 10 -14 33 8 76 72 14 21 26
34 26 29 0 -21 -31 -98 -47 -115 -15 -17 -15 -18 5 -18 31 0 80 47 92 88 12
43 13 139 3 145 -5 3 -29 -6 -56 -19z"/>
<path d="M590 1246 c0 -30 5 -67 10 -81 12 -33 48 -64 73 -65 20 0 17 20 -10
73 -8 16 -12 31 -10 34 7 6 57 -61 57 -75 0 -7 5 -12 10 -12 15 0 12 57 -5 90
-16 32 -67 74 -102 85 -22 6 -23 4 -23 -49z"/>
<path d="M800 1290 c-23 -10 -59 -47 -60 -61 0 -8 72 -5 120 5 30 6 32 5 15
-5 -11 -7 -44 -20 -73 -29 -46 -14 -51 -18 -37 -30 8 -7 35 -13 59 -13 48 0
93 23 140 71 l28 30 -32 17 c-40 21 -126 28 -160 15z"/>
<path d="M1065 1278 c-84 -62 -132 -158 -104 -209 l12 -23 21 26 c11 14 26 34
33 44 10 16 13 17 22 4 7 -10 4 -24 -11 -48 -11 -18 -19 -35 -17 -37 2 -2 18
3 35 10 58 24 87 121 65 219 -8 38 -19 40 -56 14z m-1 -112 c-3 -14 -10 -23
-15 -21 -4 3 -3 17 3 30 14 31 21 26 12 -9z"/>
<path d="M520 1139 c-23 -51 -25 -78 -8 -114 17 -39 28 -30 28 24 0 28 4 52 9
55 4 3 7 -5 6 -17 -1 -12 2 -37 7 -56 9 -31 11 -33 25 -18 30 29 11 121 -31
156 -14 12 -19 7 -36 -30z"/>
<path d="M159 1148 c-5 -93 15 -152 62 -175 34 -18 37 6 7 67 -29 59 -12 55
27 -5 27 -44 46 -52 40 -17 -2 9 -4 25 -4 34 -1 25 -49 77 -92 99 l-39 19 -1
-22z"/>
<path d="M788 1115 c-24 -14 -48 -43 -48 -60 0 -3 12 1 28 8 15 8 41 17 57 21
26 6 24 3 -17 -25 -27 -17 -48 -35 -48 -40 0 -13 55 -11 85 3 27 12 87 86 80
98 -8 13 -110 10 -137 -5z"/>
<path d="M654 1037 c-54 -56 -70 -118 -44 -167 l13 -25 18 40 c10 22 19 51 20
65 l1 25 7 -25 c4 -14 4 -41 -1 -60 -11 -52 -10 -55 13 -34 47 42 54 94 24
167 -18 43 -22 44 -51 14z"/>
<path d="M425 1031 c-66 -16 -115 -65 -115 -115 0 -34 7 -33 54 9 58 53 59 45
4 -27 l-29 -37 28 5 c50 8 103 88 103 157 0 18 0 18 -45 8z"/>
<path d="M1043 990 c-29 -17 -59 -40 -67 -53 -18 -30 -27 -80 -16 -97 7 -11
18 -5 49 29 23 25 41 48 41 53 0 4 5 8 11 8 6 0 -5 -29 -25 -65 -38 -69 -33
-79 22 -45 39 24 59 67 68 144 6 51 5 56 -12 56 -11 0 -43 -14 -71 -30z"/>
<path d="M895 1000 c-86 -21 -135 -64 -135 -121 0 -20 2 -19 32 10 21 20 35
28 42 21 6 -6 0 -19 -17 -36 -37 -37 -34 -48 11 -41 48 8 95 60 109 121 11 51
6 57 -42 46z"/>
<path d="M498 939 c-50 -65 -60 -138 -23 -169 12 -10 16 -7 25 15 5 14 10 38
10 53 0 19 3 23 11 15 6 -6 10 -30 7 -52 -4 -46 4 -51 26 -19 22 32 20 85 -7
142 l-23 50 -26 -35z"/>
<path d="M198 923 c-49 -56 -60 -122 -28 -163 l20 -25 0 40 c1 22 5 49 10 60
7 15 9 9 9 -25 2 -61 12 -76 36 -50 23 25 24 91 2 143 -18 41 -27 45 -49 20z"/>
<path d="M879 803 c-30 -79 -5 -171 47 -173 11 0 2 88 -11 110 -3 5 -4 10 -1
10 9 0 46 -78 46 -97 1 -17 2 -17 15 1 8 11 15 28 15 39 0 33 -31 85 -66 112
l-34 26 -11 -28z"/>
<path d="M291 771 c-25 -59 -27 -98 -5 -129 24 -34 32 -26 29 27 -1 27 1 55 6
62 6 10 9 4 9 -17 0 -37 19 -94 30 -94 17 0 31 68 21 104 -10 38 -47 96 -60
96 -5 0 -18 -22 -30 -49z"/>
<path d="M675 810 c-10 -16 3 -77 25 -120 13 -25 32 -45 53 -54 39 -17 55 -5
35 26 -8 13 -23 37 -34 53 l-19 30 43 -33 c23 -19 42 -39 42 -45 0 -7 3 -7 9
-1 14 13 3 57 -22 88 -25 30 -123 71 -132 56z"/>
<path d="M1067 770 c-32 -37 -41 -64 -32 -97 7 -31 23 -20 43 30 12 31 12 31
7 -17 l-5 -50 24 23 c20 19 24 31 22 71 -5 78 -19 88 -59 40z"/>
<path d="M586 735 c-47 -71 -53 -170 -14 -212 12 -13 24 -23 27 -23 3 0 5 31
4 70 -1 38 3 72 8 76 5 3 9 -12 10 -33 0 -21 6 -55 12 -76 11 -34 14 -37 30
-25 33 25 37 80 11 144 -13 32 -34 69 -47 82 l-24 23 -17 -26z"/>
<path d="M424 718 c-8 -33 -8 -43 -6 -85 2 -23 27 -53 44 -53 6 0 8 18 6 45
-6 51 7 52 16 0 8 -39 21 -46 31 -15 10 32 -4 77 -35 110 -36 38 -47 38 -56
-2z"/>
<path d="M173 653 c-24 -57 -21 -119 7 -148 13 -13 27 -22 31 -19 5 2 7 30 5
62 -4 57 -4 57 10 24 12 -27 18 -49 23 -82 1 -2 8 5 16 16 25 37 8 111 -38
162 -28 30 -35 28 -54 -15z"/>
<path d="M975 595 c-42 -15 -85 -56 -85 -81 0 -18 2 -18 47 5 21 10 52 22 68
26 24 5 17 -3 -33 -36 -59 -40 -62 -44 -45 -57 44 -32 138 18 181 99 l23 44
-38 7 c-55 10 -73 9 -118 -7z"/>
<path d="M784 586 c-39 -17 -74 -61 -74 -93 0 -24 0 -24 30 -6 17 9 30 20 30
24 0 4 12 14 26 24 31 20 26 9 -24 -52 -35 -44 -33 -50 13 -33 44 17 65 47 89
128 7 20 4 22 -26 22 -18 -1 -47 -7 -64 -14z"/>
<path d="M333 558 c-18 -6 -33 -15 -33 -21 0 -5 19 -29 43 -52 45 -46 94 -63
143 -51 23 6 25 9 13 21 -8 7 -36 25 -64 40 l-50 27 45 -7 c25 -4 53 -12 63
-17 27 -14 32 -3 13 26 -26 40 -105 56 -173 34z"/>
<path d="M560 452 c0 -45 47 -128 80 -142 15 -6 35 -10 44 -8 17 3 11 20 -32
77 -32 43 -20 39 35 -11 l46 -43 -6 38 c-7 42 -31 68 -92 97 -57 28 -75 26
-75 -8z"/>
<path d="M1085 468 c-47 -27 -86 -93 -74 -125 5 -13 11 -23 13 -23 3 0 17 20
32 45 14 25 27 45 29 45 6 0 -17 -75 -26 -84 -15 -16 -10 -24 10 -19 28 7 60
77 56 120 -4 44 -15 55 -40 41z"/>
<path d="M236 440 c-52 -33 -97 -128 -63 -131 87 -7 177 45 177 103 0 16 -51
0 -90 -30 -44 -33 -25 -3 29 45 l36 33 -30 0 c-16 0 -43 -9 -59 -20z"/>
<path d="M823 423 c-20 -4 -53 -37 -53 -54 0 -3 21 0 48 6 26 7 54 10 62 6 12
-4 10 -6 -5 -9 -32 -5 -95 -34 -95 -44 0 -14 46 -27 77 -22 34 6 100 50 114
77 6 10 9 20 7 21 -31 20 -106 29 -155 19z"/>
<path d="M425 398 c-26 -14 -65 -49 -65 -59 0 -12 58 -31 95 -31 21 0 45 8 56
18 25 23 11 32 -44 28 -45 -4 -30 9 27 21 19 4 26 9 19 16 -16 16 -66 20 -88
7z"/>
<path d="M702 211 c-7 -4 -15 -20 -17 -34 -3 -15 -7 -39 -10 -54 -14 -77 -17
-113 -8 -113 5 0 15 11 21 25 7 16 17 23 26 19 9 -3 15 -9 14 -12 -2 -21 4
-32 18 -32 12 0 14 7 10 28 -3 15 -10 59 -16 97 -12 76 -18 88 -38 76z m14
-95 c5 -37 3 -46 -9 -46 -11 0 -15 8 -12 28 2 15 4 38 4 51 1 37 11 19 17 -33z"/>
<path d="M190 129 c0 -99 9 -119 55 -119 41 0 47 14 50 123 2 65 -1 77 -14 77
-13 0 -16 -14 -16 -88 0 -83 -1 -87 -22 -90 -26 -4 -25 -6 -23 106 1 59 -1 72
-14 72 -13 0 -16 -14 -16 -81z"/>
<path d="M422 110 c-2 -65 1 -100 8 -100 11 0 12 4 12 74 1 56 12 42 22 -26 4
-27 11 -48 17 -48 5 0 9 6 10 13 0 6 6 39 14 72 l13 60 1 -72 c1 -40 5 -73 10
-73 15 0 16 14 13 110 -3 79 -6 91 -20 88 -11 -2 -20 -20 -27 -55 -14 -72 -21
-73 -29 -3 -6 47 -11 60 -24 60 -15 0 -18 -13 -20 -100z"/>
<path d="M878 203 c-2 -5 -5 -50 -7 -102 -2 -70 1 -92 10 -89 7 2 12 24 12 55
1 64 12 60 21 -7 8 -60 22 -65 31 -10 9 52 25 52 25 0 0 -42 16 -56 22 -17 2
12 2 57 0 100 -3 59 -7 77 -18 77 -8 0 -17 -6 -19 -12 -4 -14 -17 -86 -18
-106 0 -12 -11 -7 -13 6 -5 64 -18 112 -29 112 -8 0 -15 -3 -17 -7z m89 -95
c-3 -7 -5 -2 -5 12 0 14 2 19 5 13 2 -7 2 -19 0 -25z"/>
<path d="M1119 180 c0 -16 -1 -55 -1 -85 0 -82 1 -85 15 -85 9 0 12 26 12 100
1 75 -3 100 -12 100 -8 0 -13 -13 -14 -30z"/>
</g>
</svg>
